<svg xmlns="http://www.w3.org/2000/svg" xmlns:xlink="http://www.w3.org/1999/xlink" width="1640" zoomAndPan="magnify" viewBox="0 0 1230 693.000001" height="924" preserveAspectRatio="xMidYMid meet" version="1.0"><defs><clipPath id="1a8dc07823"><path d="M 388 637 L 459 637 L 459 692 L 388 692 Z M 388 637 " clip-rule="nonzero"/></clipPath><clipPath id="b70538e501"><path d="M 305 651 L 435 651 L 435 692 L 305 692 Z M 305 651 " clip-rule="nonzero"/></clipPath></defs><path fill="#e2e2e2" d="M 1057.609375 339.089844 C 1057.609375 253.632812 988.277344 184.359375 902.746094 184.359375 C 817.214844 184.359375 747.882812 253.632812 747.882812 339.089844 C 747.882812 424.550781 817.214844 493.824219 902.746094 493.824219 C 906.460938 493.824219 910.132812 493.683594 913.785156 493.429688 C 912.984375 495.085938 912.515625 496.9375 912.515625 498.910156 C 912.515625 505.871094 918.160156 511.515625 925.132812 511.515625 C 932.101562 511.515625 937.75 505.871094 937.75 498.910156 C 937.75 495.695312 936.539062 492.777344 934.5625 490.550781 C 1004.820312 475.890625 1057.609375 413.652344 1057.609375 339.089844 Z M 875.375 176.632812 C 879.648438 176.632812 883.109375 173.175781 883.109375 168.90625 C 883.109375 164.636719 879.648438 161.179688 875.375 161.179688 C 871.101562 161.179688 867.644531 164.636719 867.644531 168.90625 C 867.644531 173.175781 871.101562 176.632812 875.375 176.632812 Z M 736.792969 375.285156 C 736.476562 375.285156 736.171875 375.304688 735.867188 375.34375 C 732.132812 355.96875 723.910156 289.40625 770.472656 235.800781 L 769.25 234.683594 C 722.152344 288.910156 730.546875 356.171875 734.257812 375.722656 C 731.238281 376.769531 729.058594 379.636719 729.058594 383.011719 C 729.058594 387.28125 732.519531 390.738281 736.792969 390.738281 C 741.066406 390.738281 744.527344 387.28125 744.527344 383.011719 C 744.527344 378.742188 741.066406 375.285156 736.792969 375.285156 Z M 736.792969 375.285156 " fill-opacity="1" fill-rule="nonzero"/><path fill="#5271ff" d="M 776.375 492.097656 C 782.886719 496.0625 791.433594 494.027344 795.402344 487.523438 L 984.144531 179.984375 C 988.113281 173.480469 986.078125 164.941406 979.566406 160.976562 C 973.054688 157.011719 964.507812 159.042969 960.539062 165.550781 L 771.796875 473.085938 C 767.828125 479.59375 769.863281 488.132812 776.375 492.097656 Z M 1037.15625 280.429688 C 1030.644531 276.464844 1022.097656 278.5 1018.128906 285.007812 L 904.476562 470.238281 C 900.507812 476.746094 902.542969 485.285156 909.054688 489.25 C 915.566406 493.214844 924.113281 491.183594 928.082031 484.675781 L 1041.738281 299.441406 C 1045.703125 292.9375 1043.667969 284.394531 1037.15625 280.429688 Z M 782.171875 411.578125 C 788.683594 415.542969 797.230469 413.511719 801.199219 407.003906 L 914.855469 221.769531 C 918.824219 215.265625 916.789062 206.722656 910.277344 202.757812 C 903.765625 198.792969 895.21875 200.828125 891.25 207.335938 L 777.695312 392.566406 C 773.625 398.972656 775.761719 407.613281 782.171875 411.578125 Z M 1042.957031 199.8125 C 1036.445312 195.847656 1027.898438 197.878906 1023.929688 204.386719 L 835.183594 511.921875 C 831.214844 518.429688 833.25 526.96875 839.765625 530.933594 C 846.277344 534.898438 854.824219 532.863281 858.789062 526.359375 L 1047.535156 218.820312 C 1051.503906 212.417969 1049.46875 203.878906 1042.957031 199.8125 Z M 1046.113281 123.664062 C 1039.601562 119.699219 1031.054688 121.730469 1027.085938 128.238281 L 768.640625 549.335938 C 764.671875 555.839844 766.707031 564.378906 773.21875 568.34375 C 779.730469 572.308594 788.277344 570.277344 792.246094 563.769531 L 1050.691406 142.675781 C 1054.660156 136.167969 1052.625 127.628906 1046.113281 123.664062 Z M 1046.113281 123.664062 " fill-opacity="1" fill-rule="nonzero"/><path fill="#ffffff" d="M 1064.527344 346.003906 C 1064.527344 348.535156 1064.464844 351.066406 1064.34375 353.597656 C 1064.21875 356.125 1064.03125 358.652344 1063.78125 361.171875 C 1063.535156 363.691406 1063.222656 366.203125 1062.851562 368.707031 C 1062.480469 371.214844 1062.046875 373.707031 1061.554688 376.191406 C 1061.058594 378.675781 1060.503906 381.144531 1059.886719 383.601562 C 1059.273438 386.058594 1058.597656 388.5 1057.859375 390.921875 C 1057.125 393.34375 1056.328125 395.75 1055.476562 398.132812 C 1054.621094 400.515625 1053.710938 402.878906 1052.742188 405.21875 C 1051.769531 407.558594 1050.742188 409.871094 1049.660156 412.160156 C 1048.578125 414.449219 1047.4375 416.710938 1046.242188 418.945312 C 1045.046875 421.179688 1043.800781 423.382812 1042.496094 425.554688 C 1041.191406 427.726562 1039.835938 429.863281 1038.429688 431.96875 C 1037.019531 434.074219 1035.5625 436.144531 1034.050781 438.179688 C 1032.542969 440.214844 1030.984375 442.210938 1029.375 444.167969 C 1027.769531 446.125 1026.113281 448.042969 1024.410156 449.917969 C 1022.710938 451.792969 1020.960938 453.628906 1019.171875 455.417969 C 1017.378906 457.207031 1015.542969 458.953125 1013.664062 460.65625 C 1011.789062 462.355469 1009.867188 464.007812 1007.910156 465.617188 C 1005.949219 467.222656 1003.953125 468.78125 1001.917969 470.289062 C 999.882812 471.796875 997.808594 473.253906 995.703125 474.660156 C 993.59375 476.066406 991.453125 477.421875 989.28125 478.722656 C 987.105469 480.027344 984.902344 481.273438 982.667969 482.46875 C 980.433594 483.660156 978.167969 484.800781 975.878906 485.882812 C 973.585938 486.964844 971.269531 487.992188 968.929688 488.960938 C 966.585938 489.929688 964.222656 490.839844 961.835938 491.691406 C 959.449219 492.546875 957.046875 493.339844 954.621094 494.074219 C 952.195312 494.8125 949.753906 495.484375 947.292969 496.101562 C 944.835938 496.714844 942.363281 497.269531 939.878906 497.765625 C 937.390625 498.257812 934.894531 498.691406 932.390625 499.0625 C 929.882812 499.433594 927.367188 499.746094 924.84375 499.992188 C 922.324219 500.242188 919.796875 500.429688 917.265625 500.550781 C 914.734375 500.675781 912.199219 500.738281 909.664062 500.738281 C 907.132812 500.738281 904.597656 500.675781 902.066406 500.550781 C 899.535156 500.429688 897.007812 500.242188 894.488281 499.992188 C 891.964844 499.746094 889.449219 499.433594 886.941406 499.0625 C 884.433594 498.691406 881.9375 498.257812 879.453125 497.765625 C 876.96875 497.269531 874.496094 496.714844 872.035156 496.101562 C 869.578125 495.484375 867.136719 494.8125 864.710938 494.074219 C 862.285156 493.339844 859.878906 492.546875 857.492188 491.691406 C 855.109375 490.839844 852.742188 489.929688 850.402344 488.960938 C 848.0625 487.992188 845.746094 486.964844 843.453125 485.882812 C 841.164062 484.800781 838.898438 483.660156 836.664062 482.46875 C 834.429688 481.273438 832.222656 480.027344 830.050781 478.722656 C 827.875 477.421875 825.734375 476.066406 823.628906 474.660156 C 821.519531 473.253906 819.449219 471.796875 817.414062 470.289062 C 815.378906 468.78125 813.378906 467.222656 811.421875 465.617188 C 809.460938 464.007812 807.542969 462.355469 805.667969 460.65625 C 803.789062 458.953125 801.953125 457.207031 800.160156 455.417969 C 798.367188 453.628906 796.621094 451.792969 794.917969 449.917969 C 793.21875 448.042969 791.5625 446.125 789.953125 444.167969 C 788.347656 442.210938 786.789062 440.214844 785.277344 438.179688 C 783.769531 436.144531 782.308594 434.074219 780.902344 431.96875 C 779.492188 429.863281 778.136719 427.726562 776.835938 425.554688 C 775.53125 423.382812 774.285156 421.179688 773.089844 418.945312 C 771.894531 416.710938 770.753906 414.449219 769.671875 412.160156 C 768.585938 409.871094 767.5625 407.558594 766.589844 405.21875 C 765.621094 402.878906 764.710938 400.515625 763.855469 398.132812 C 763 395.75 762.207031 393.34375 761.472656 390.921875 C 760.734375 388.5 760.058594 386.058594 759.445312 383.601562 C 758.828125 381.144531 758.273438 378.675781 757.777344 376.191406 C 757.285156 373.707031 756.851562 371.214844 756.480469 368.707031 C 756.105469 366.203125 755.796875 363.691406 755.546875 361.171875 C 755.300781 358.652344 755.113281 356.125 754.988281 353.597656 C 754.863281 351.066406 754.804688 348.535156 754.804688 346.003906 C 754.804688 343.472656 754.863281 340.941406 754.988281 338.414062 C 755.113281 335.882812 755.300781 333.359375 755.546875 330.839844 C 755.796875 328.316406 756.105469 325.804688 756.480469 323.300781 C 756.851562 320.796875 757.285156 318.300781 757.777344 315.816406 C 758.273438 313.332031 758.828125 310.863281 759.445312 308.40625 C 760.058594 305.949219 760.734375 303.511719 761.472656 301.085938 C 762.207031 298.664062 763 296.261719 763.855469 293.875 C 764.710938 291.492188 765.621094 289.128906 766.589844 286.789062 C 767.5625 284.449219 768.585938 282.136719 769.671875 279.847656 C 770.753906 277.558594 771.894531 275.296875 773.089844 273.0625 C 774.285156 270.832031 775.53125 268.628906 776.835938 266.457031 C 778.136719 264.285156 779.492188 262.144531 780.902344 260.039062 C 782.308594 257.933594 783.769531 255.863281 785.277344 253.828125 C 786.789062 251.796875 788.347656 249.800781 789.953125 247.84375 C 791.5625 245.886719 793.21875 243.96875 794.917969 242.09375 C 796.621094 240.214844 798.367188 238.382812 800.160156 236.589844 C 801.953125 234.800781 803.789062 233.054688 805.667969 231.355469 C 807.542969 229.652344 809.460938 228 811.421875 226.394531 C 813.378906 224.789062 815.378906 223.230469 817.414062 221.722656 C 819.449219 220.214844 821.519531 218.753906 823.628906 217.347656 C 825.734375 215.941406 827.875 214.585938 830.050781 213.285156 C 832.222656 211.984375 834.429688 210.734375 836.664062 209.542969 C 838.898438 208.347656 841.164062 207.210938 843.453125 206.128906 C 845.746094 205.042969 848.0625 204.019531 850.402344 203.050781 C 852.742188 202.082031 855.109375 201.167969 857.492188 200.316406 C 859.878906 199.464844 862.285156 198.667969 864.710938 197.933594 C 867.136719 197.199219 869.578125 196.523438 872.035156 195.90625 C 874.496094 195.292969 876.96875 194.738281 879.453125 194.246094 C 881.9375 193.75 884.433594 193.316406 886.941406 192.945312 C 889.449219 192.574219 891.964844 192.265625 894.488281 192.015625 C 897.007812 191.769531 899.535156 191.582031 902.066406 191.457031 C 904.597656 191.332031 907.132812 191.269531 909.664062 191.269531 C 912.199219 191.269531 914.734375 191.332031 917.265625 191.457031 C 919.796875 191.582031 922.324219 191.769531 924.84375 192.015625 C 927.367188 192.265625 929.882812 192.574219 932.390625 192.945312 C 934.894531 193.316406 937.390625 193.75 939.878906 194.246094 C 942.363281 194.738281 944.835938 195.292969 947.292969 195.90625 C 949.753906 196.523438 952.195312 197.199219 954.621094 197.933594 C 957.046875 198.667969 959.449219 199.464844 961.835938 200.316406 C 964.222656 201.167969 966.585938 202.082031 968.929688 203.050781 C 971.269531 204.019531 973.585938 205.042969 975.878906 206.128906 C 978.167969 207.210938 980.433594 208.347656 982.667969 209.542969 C 984.902344 210.734375 987.105469 211.984375 989.28125 213.285156 C 991.453125 214.585938 993.59375 215.941406 995.703125 217.347656 C 997.808594 218.753906 999.882812 220.214844 1001.917969 221.722656 C 1003.953125 223.230469 1005.949219 224.789062 1007.910156 226.394531 C 1009.867188 228 1011.789062 229.652344 1013.664062 231.355469 C 1015.542969 233.054688 1017.378906 234.800781 1019.171875 236.589844 C 1020.960938 238.382812 1022.710938 240.214844 1024.410156 242.09375 C 1026.113281 243.96875 1027.769531 245.886719 1029.375 247.84375 C 1030.984375 249.800781 1032.542969 251.796875 1034.050781 253.828125 C 1035.5625 255.863281 1037.019531 257.933594 1038.429688 260.039062 C 1039.835938 262.144531 1041.191406 264.285156 1042.496094 266.457031 C 1043.800781 268.628906 1045.046875 270.832031 1046.242188 273.0625 C 1047.4375 275.296875 1048.578125 277.558594 1049.660156 279.847656 C 1050.742188 282.136719 1051.769531 284.449219 1052.742188 286.789062 C 1053.710938 289.128906 1054.621094 291.492188 1055.476562 293.875 C 1056.328125 296.261719 1057.125 298.664062 1057.859375 301.085938 C 1058.597656 303.511719 1059.273438 305.949219 1059.886719 308.40625 C 1060.503906 310.863281 1061.058594 313.332031 1061.554688 315.816406 C 1062.046875 318.300781 1062.480469 320.796875 1062.851562 323.300781 C 1063.222656 325.804688 1063.535156 328.316406 1063.78125 330.839844 C 1064.03125 333.359375 1064.21875 335.882812 1064.34375 338.414062 C 1064.464844 340.941406 1064.527344 343.472656 1064.527344 346.003906 Z M 1064.527344 346.003906 " fill-opacity="1" fill-rule="nonzero"/><path fill="#5271ff" d="M 979.058594 499.214844 C 981.5 500.636719 984.65625 499.925781 986.078125 497.484375 L 1055.675781 384.230469 C 1057.101562 381.789062 1056.386719 378.640625 1053.945312 377.214844 C 1051.503906 375.792969 1048.351562 376.503906 1046.925781 378.945312 L 977.328125 492.300781 C 975.90625 494.636719 976.71875 497.789062 979.058594 499.214844 Z M 1075.210938 421.238281 C 1072.769531 419.8125 1069.617188 420.523438 1068.191406 422.964844 L 1026.269531 491.285156 C 1024.847656 493.722656 1025.558594 496.875 1028 498.296875 C 1030.441406 499.722656 1033.597656 499.011719 1035.019531 496.570312 L 1076.941406 428.25 C 1078.367188 425.8125 1077.550781 422.660156 1075.210938 421.238281 Z M 981.195312 469.527344 C 983.636719 470.949219 986.792969 470.238281 988.214844 467.800781 L 1030.136719 399.480469 C 1031.5625 397.039062 1030.847656 393.890625 1028.40625 392.464844 C 1025.964844 391.042969 1022.8125 391.753906 1021.386719 394.195312 L 979.566406 462.511719 C 978.042969 464.953125 978.855469 468.105469 981.195312 469.527344 Z M 1078.46875 363.390625 C 1076.027344 361.964844 1072.871094 362.675781 1071.449219 365.117188 L 976.210938 520.359375 C 974.785156 522.800781 975.496094 525.953125 977.941406 527.375 C 980.382812 528.796875 983.535156 528.085938 984.960938 525.644531 L 1080.199219 370.402344 C 1081.621094 368.066406 1080.910156 364.8125 1078.46875 363.390625 Z M 1077.347656 391.449219 C 1074.90625 390.027344 1071.753906 390.738281 1070.328125 393.175781 L 1000.730469 506.535156 C 999.308594 508.972656 1000.019531 512.125 1002.460938 513.546875 C 1004.902344 514.972656 1008.058594 514.261719 1009.480469 511.820312 L 1079.078125 398.464844 C 1080.503906 396.125 1079.789062 392.972656 1077.347656 391.449219 Z M 1077.347656 391.449219 " fill-opacity="1" fill-rule="nonzero"/><path fill="#5271ff" d="M 813.003906 201.539062 C 799.164062 201.539062 787.972656 212.722656 787.972656 226.546875 C 787.972656 240.375 799.164062 251.558594 813.003906 251.558594 C 826.839844 251.558594 838.035156 240.375 838.035156 226.546875 C 838.035156 212.722656 826.839844 201.539062 813.003906 201.539062 Z M 813.003906 246.78125 C 801.8125 246.78125 792.753906 237.730469 792.753906 226.546875 C 792.753906 215.367188 801.8125 206.316406 813.003906 206.316406 C 824.195312 206.316406 833.25 215.367188 833.25 226.546875 C 833.25 237.628906 824.195312 246.78125 813.003906 246.78125 Z M 813.003906 246.78125 " fill-opacity="1" fill-rule="nonzero"/><path fill="#5271ff" d="M 486.011719 45.984375 C 486.820312 45.175781 487.664062 44.410156 488.546875 43.683594 C 489.429688 42.957031 490.347656 42.273438 491.296875 41.640625 C 492.246094 41.003906 493.226562 40.414062 494.234375 39.875 C 495.242188 39.335938 496.273438 38.847656 497.328125 38.410156 C 498.382812 37.96875 499.457031 37.585938 500.550781 37.253906 C 501.644531 36.921875 502.75 36.644531 503.871094 36.417969 C 504.992188 36.195312 506.121094 36.027344 507.257812 35.917969 C 508.394531 35.804688 509.535156 35.746094 510.675781 35.746094 C 511.820312 35.746094 512.957031 35.804688 514.09375 35.917969 C 515.230469 36.027344 516.359375 36.195312 517.480469 36.417969 C 518.601562 36.644531 519.707031 36.921875 520.800781 37.253906 C 521.894531 37.585938 522.96875 37.96875 524.023438 38.410156 C 525.078125 38.847656 526.113281 39.335938 527.117188 39.875 C 528.125 40.414062 529.105469 41.003906 530.054688 41.636719 C 531.003906 42.273438 531.921875 42.957031 532.804688 43.679688 C 533.6875 44.40625 534.53125 45.175781 535.339844 45.984375 C 536.148438 46.792969 536.914062 47.640625 537.640625 48.527344 C 538.363281 49.410156 539.042969 50.328125 539.679688 51.28125 C 540.3125 52.234375 540.898438 53.214844 541.4375 54.222656 C 541.976562 55.234375 542.464844 56.265625 542.902344 57.324219 C 543.339844 58.382812 543.722656 59.457031 544.054688 60.554688 C 544.386719 61.648438 544.664062 62.757812 544.886719 63.882812 C 545.109375 65.003906 545.277344 66.136719 545.390625 67.273438 C 545.5 68.414062 545.558594 69.554688 545.558594 70.699219 C 545.558594 71.84375 545.5 72.988281 545.390625 74.128906 C 545.277344 75.265625 545.109375 76.398438 544.886719 77.519531 C 544.664062 78.644531 544.386719 79.753906 544.054688 80.847656 C 543.722656 81.941406 543.339844 83.019531 542.902344 84.078125 C 542.464844 85.136719 541.976562 86.167969 541.4375 87.179688 C 540.902344 88.1875 540.3125 89.167969 539.679688 90.121094 C 539.046875 91.070312 538.367188 91.992188 537.640625 92.875 C 536.914062 93.761719 536.148438 94.609375 535.339844 95.417969 C 534.535156 96.226562 533.6875 96.996094 532.804688 97.722656 C 531.921875 98.445312 531.007812 99.128906 530.054688 99.765625 C 529.105469 100.398438 528.128906 100.988281 527.121094 101.527344 C 526.113281 102.066406 525.082031 102.554688 524.027344 102.996094 C 522.96875 103.433594 521.894531 103.816406 520.804688 104.148438 C 519.710938 104.480469 518.601562 104.761719 517.480469 104.984375 C 516.363281 105.207031 515.234375 105.375 514.097656 105.488281 C 512.960938 105.597656 511.820312 105.65625 510.675781 105.65625 C 509.535156 105.65625 508.394531 105.597656 507.257812 105.488281 C 506.121094 105.375 504.992188 105.207031 503.871094 104.984375 C 502.75 104.761719 501.644531 104.484375 500.550781 104.148438 C 499.457031 103.816406 498.382812 103.433594 497.328125 102.996094 C 496.273438 102.558594 495.242188 102.066406 494.234375 101.527344 C 493.226562 100.988281 492.25 100.402344 491.296875 99.765625 C 490.347656 99.128906 489.433594 98.449219 488.550781 97.722656 C 487.664062 96.996094 486.820312 96.226562 486.011719 95.417969 C 485.203125 94.609375 484.4375 93.761719 483.714844 92.875 C 482.988281 91.992188 482.308594 91.074219 481.675781 90.121094 C 481.039062 89.167969 480.453125 88.1875 479.914062 87.179688 C 479.375 86.167969 478.886719 85.136719 478.449219 84.078125 C 478.015625 83.019531 477.628906 81.945312 477.296875 80.847656 C 476.964844 79.753906 476.6875 78.644531 476.464844 77.519531 C 476.242188 76.398438 476.074219 75.265625 475.964844 74.128906 C 475.851562 72.988281 475.796875 71.847656 475.796875 70.703125 C 475.796875 69.558594 475.851562 68.414062 475.964844 67.277344 C 476.074219 66.136719 476.242188 65.003906 476.464844 63.882812 C 476.6875 62.761719 476.964844 61.652344 477.296875 60.554688 C 477.628906 59.460938 478.011719 58.382812 478.449219 57.324219 C 478.886719 56.269531 479.375 55.234375 479.914062 54.226562 C 480.453125 53.214844 481.039062 52.234375 481.675781 51.28125 C 482.308594 50.332031 482.988281 49.414062 483.714844 48.527344 C 484.4375 47.644531 485.203125 46.796875 486.011719 45.984375 Z M 486.011719 45.984375 " fill-opacity="1" fill-rule="nonzero"/><path fill="#e2e2e2" d="M 426.953125 87.492188 C 426.953125 89.628906 428.679688 91.355469 430.8125 91.355469 C 432.945312 91.355469 434.671875 89.628906 434.671875 87.492188 C 434.671875 85.355469 432.945312 83.625 430.8125 83.625 C 428.679688 83.625 426.953125 85.355469 426.953125 87.492188 Z M 392.171875 87.492188 C 392.171875 89.628906 393.898438 91.355469 396.03125 91.355469 C 398.164062 91.355469 399.890625 89.628906 399.890625 87.492188 C 399.890625 85.355469 398.164062 83.625 396.03125 83.625 C 393.949219 83.625 392.171875 85.355469 392.171875 87.492188 Z M 409.539062 87.492188 C 409.539062 89.628906 411.265625 91.355469 413.394531 91.355469 C 415.527344 91.355469 417.253906 89.628906 417.253906 87.492188 C 417.253906 85.355469 415.527344 83.625 413.394531 83.625 C 411.316406 83.625 409.539062 85.355469 409.539062 87.492188 Z M 496.410156 70.699219 C 496.410156 72.835938 498.136719 74.566406 500.269531 74.566406 C 502.402344 74.566406 504.128906 72.835938 504.128906 70.699219 C 504.128906 68.5625 502.402344 66.832031 500.269531 66.832031 C 498.136719 66.832031 496.410156 68.511719 496.410156 70.699219 Z M 513.773438 70.699219 C 513.773438 72.835938 515.5 74.566406 517.632812 74.566406 C 519.765625 74.566406 521.492188 72.835938 521.492188 70.699219 C 521.492188 68.5625 519.765625 66.832031 517.632812 66.832031 C 515.5 66.78125 513.773438 68.511719 513.773438 70.699219 Z M 461.679688 87.492188 C 461.679688 89.628906 463.40625 91.355469 465.539062 91.355469 C 467.671875 91.355469 469.398438 89.628906 469.398438 87.492188 C 469.398438 85.355469 467.671875 83.625 465.539062 83.625 C 463.40625 83.625 461.679688 85.355469 461.679688 87.492188 Z M 513.773438 87.492188 C 513.773438 89.628906 515.5 91.355469 517.632812 91.355469 C 519.765625 91.355469 521.492188 89.628906 521.492188 87.492188 C 521.492188 85.355469 519.765625 83.625 517.632812 83.625 C 515.5 83.625 513.773438 85.355469 513.773438 87.492188 Z M 399.941406 53.859375 C 399.941406 51.722656 398.214844 49.992188 396.082031 49.992188 C 393.949219 49.992188 392.222656 51.722656 392.222656 53.859375 C 392.222656 55.996094 393.949219 57.726562 396.082031 57.726562 C 398.214844 57.726562 399.941406 55.996094 399.941406 53.859375 Z M 496.410156 87.492188 C 496.410156 89.628906 498.136719 91.355469 500.269531 91.355469 C 502.402344 91.355469 504.128906 89.628906 504.128906 87.492188 C 504.128906 85.355469 502.402344 83.625 500.269531 83.625 C 498.136719 83.625 496.410156 85.355469 496.410156 87.492188 Z M 479.046875 70.699219 C 479.046875 72.835938 480.773438 74.566406 482.90625 74.566406 C 485.035156 74.566406 486.761719 72.835938 486.761719 70.699219 C 486.761719 68.5625 485.035156 66.832031 482.90625 66.832031 C 480.773438 66.832031 479.046875 68.511719 479.046875 70.699219 Z M 444.316406 87.492188 C 444.316406 89.628906 446.042969 91.355469 448.175781 91.355469 C 450.308594 91.355469 452.035156 89.628906 452.035156 87.492188 C 452.035156 85.355469 450.308594 83.625 448.175781 83.625 C 446.042969 83.625 444.316406 85.355469 444.316406 87.492188 Z M 479.046875 87.492188 C 479.046875 89.628906 480.773438 91.355469 482.90625 91.355469 C 485.035156 91.355469 486.761719 89.628906 486.761719 87.492188 C 486.761719 85.355469 485.035156 83.625 482.90625 83.625 C 480.773438 83.625 479.046875 85.355469 479.046875 87.492188 Z M 444.316406 70.699219 C 444.316406 72.835938 446.042969 74.566406 448.175781 74.566406 C 450.308594 74.566406 452.035156 72.835938 452.035156 70.699219 C 452.035156 68.5625 450.308594 66.832031 448.175781 66.832031 C 446.042969 66.832031 444.316406 68.511719 444.316406 70.699219 Z M 461.679688 53.859375 C 461.679688 55.996094 463.40625 57.726562 465.539062 57.726562 C 467.671875 57.726562 469.398438 55.996094 469.398438 53.859375 C 469.398438 51.722656 467.671875 49.992188 465.539062 49.992188 C 463.40625 49.992188 461.679688 51.722656 461.679688 53.859375 Z M 444.316406 53.859375 C 444.316406 55.996094 446.042969 57.726562 448.175781 57.726562 C 450.308594 57.726562 452.035156 55.996094 452.035156 53.859375 C 452.035156 51.722656 450.308594 49.992188 448.175781 49.992188 C 446.042969 49.992188 444.316406 51.722656 444.316406 53.859375 Z M 479.046875 53.859375 C 479.046875 55.996094 480.773438 57.726562 482.90625 57.726562 C 485.035156 57.726562 486.761719 55.996094 486.761719 53.859375 C 486.761719 51.722656 485.035156 49.992188 482.90625 49.992188 C 480.773438 49.992188 479.046875 51.722656 479.046875 53.859375 Z M 426.953125 53.859375 C 426.953125 55.996094 428.679688 57.726562 430.8125 57.726562 C 432.945312 57.726562 434.671875 55.996094 434.671875 53.859375 C 434.671875 51.722656 432.945312 49.992188 430.8125 49.992188 C 428.679688 49.992188 426.953125 51.722656 426.953125 53.859375 Z M 409.539062 53.859375 C 409.539062 55.996094 411.265625 57.726562 413.394531 57.726562 C 415.527344 57.726562 417.253906 55.996094 417.253906 53.859375 C 417.253906 51.722656 415.527344 49.992188 413.394531 49.992188 C 411.316406 49.992188 409.539062 51.722656 409.539062 53.859375 Z M 461.679688 70.699219 C 461.679688 72.835938 463.40625 74.566406 465.539062 74.566406 C 467.671875 74.566406 469.398438 72.835938 469.398438 70.699219 C 469.398438 68.5625 467.671875 66.832031 465.539062 66.832031 C 463.40625 66.78125 461.679688 68.511719 461.679688 70.699219 Z M 426.953125 70.699219 C 426.953125 72.835938 428.679688 74.566406 430.8125 74.566406 C 432.945312 74.566406 434.671875 72.835938 434.671875 70.699219 C 434.671875 68.5625 432.945312 66.832031 430.8125 66.832031 C 428.679688 66.832031 426.953125 68.511719 426.953125 70.699219 Z M 409.539062 70.699219 C 409.539062 72.835938 411.265625 74.566406 413.394531 74.566406 C 415.527344 74.566406 417.253906 72.835938 417.253906 70.699219 C 417.253906 68.5625 415.527344 66.832031 413.394531 66.832031 C 411.316406 66.78125 409.539062 68.511719 409.539062 70.699219 Z M 496.410156 53.859375 C 496.410156 55.996094 498.136719 57.726562 500.269531 57.726562 C 502.402344 57.726562 504.128906 55.996094 504.128906 53.859375 C 504.128906 51.722656 502.402344 49.992188 500.269531 49.992188 C 498.136719 49.992188 496.410156 51.722656 496.410156 53.859375 Z M 392.171875 70.699219 C 392.171875 72.835938 393.898438 74.566406 396.03125 74.566406 C 398.164062 74.566406 399.890625 72.835938 399.890625 70.699219 C 399.890625 68.5625 398.164062 66.832031 396.03125 66.832031 C 393.949219 66.78125 392.171875 68.511719 392.171875 70.699219 Z M 513.773438 53.859375 C 513.773438 55.996094 515.5 57.726562 517.632812 57.726562 C 519.765625 57.726562 521.492188 55.996094 521.492188 53.859375 C 521.492188 51.722656 519.765625 49.992188 517.632812 49.992188 C 515.5 49.992188 513.773438 51.722656 513.773438 53.859375 Z M 513.773438 53.859375 " fill-opacity="1" fill-rule="nonzero"/><g clip-path="url(#1a8dc07823)"><path fill="#38b6ff" d="M 398.839844 647.488281 C 399.644531 646.679688 400.492188 645.914062 401.375 645.1875 C 402.257812 644.460938 403.175781 643.777344 404.125 643.140625 C 405.074219 642.507812 406.050781 641.917969 407.058594 641.378906 C 408.066406 640.839844 409.097656 640.351562 410.152344 639.914062 C 411.210938 639.472656 412.285156 639.089844 413.378906 638.757812 C 414.46875 638.425781 415.578125 638.148438 416.699219 637.921875 C 417.816406 637.699219 418.945312 637.53125 420.082031 637.417969 C 421.21875 637.308594 422.359375 637.25 423.503906 637.25 C 424.644531 637.25 425.785156 637.308594 426.921875 637.417969 C 428.058594 637.53125 429.1875 637.699219 430.308594 637.921875 C 431.429688 638.144531 432.535156 638.425781 433.628906 638.757812 C 434.722656 639.089844 435.796875 639.472656 436.851562 639.910156 C 437.90625 640.351562 438.9375 640.839844 439.945312 641.378906 C 440.953125 641.917969 441.929688 642.507812 442.882812 643.140625 C 443.832031 643.777344 444.746094 644.457031 445.632812 645.183594 C 446.515625 645.910156 447.359375 646.679688 448.167969 647.488281 C 448.976562 648.296875 449.742188 649.144531 450.464844 650.03125 C 451.191406 650.914062 451.871094 651.832031 452.503906 652.785156 C 453.140625 653.738281 453.726562 654.71875 454.265625 655.726562 C 454.804688 656.738281 455.292969 657.769531 455.730469 658.828125 C 456.164062 659.886719 456.550781 660.960938 456.882812 662.058594 C 457.214844 663.152344 457.492188 664.261719 457.714844 665.386719 C 457.9375 666.507812 458.105469 667.640625 458.214844 668.777344 C 458.328125 669.917969 458.382812 671.058594 458.382812 672.203125 C 458.382812 673.347656 458.328125 674.492188 458.214844 675.628906 C 458.105469 676.769531 457.9375 677.902344 457.714844 679.023438 C 457.492188 680.144531 457.214844 681.253906 456.882812 682.351562 C 456.550781 683.445312 456.167969 684.523438 455.730469 685.582031 C 455.292969 686.636719 454.804688 687.671875 454.265625 688.679688 C 453.726562 689.691406 453.140625 690.671875 452.507812 691.625 C 451.871094 692.574219 451.191406 693.492188 450.46875 694.378906 C 449.742188 695.265625 448.976562 696.109375 448.167969 696.921875 C 447.359375 697.730469 446.515625 698.496094 445.632812 699.222656 C 444.75 699.949219 443.832031 700.632812 442.882812 701.269531 C 441.933594 701.902344 440.953125 702.492188 439.945312 703.03125 C 438.9375 703.570312 437.90625 704.058594 436.851562 704.496094 C 435.796875 704.9375 434.722656 705.320312 433.628906 705.652344 C 432.535156 705.984375 431.429688 706.265625 430.308594 706.488281 C 429.1875 706.710938 428.058594 706.878906 426.921875 706.992188 C 425.785156 707.101562 424.644531 707.160156 423.503906 707.160156 C 422.363281 707.160156 421.222656 707.101562 420.085938 706.992188 C 418.949219 706.878906 417.820312 706.710938 416.699219 706.488281 C 415.578125 706.265625 414.472656 705.984375 413.378906 705.652344 C 412.285156 705.320312 411.210938 704.9375 410.15625 704.5 C 409.101562 704.058594 408.070312 703.570312 407.0625 703.03125 C 406.054688 702.492188 405.074219 701.90625 404.125 701.269531 C 403.175781 700.632812 402.257812 699.953125 401.375 699.226562 C 400.492188 698.5 399.648438 697.730469 398.839844 696.921875 C 398.03125 696.113281 397.265625 695.265625 396.539062 694.378906 C 395.816406 693.496094 395.136719 692.578125 394.5 691.625 C 393.867188 690.671875 393.28125 689.691406 392.742188 688.683594 C 392.203125 687.671875 391.714844 686.640625 391.277344 685.582031 C 390.839844 684.523438 390.457031 683.449219 390.125 682.351562 C 389.792969 681.257812 389.515625 680.148438 389.292969 679.023438 C 389.070312 677.902344 388.902344 676.769531 388.789062 675.632812 C 388.679688 674.492188 388.621094 673.351562 388.621094 672.207031 C 388.621094 671.0625 388.679688 669.917969 388.789062 668.78125 C 388.902344 667.640625 389.070312 666.507812 389.292969 665.386719 C 389.515625 664.265625 389.792969 663.15625 390.125 662.058594 C 390.457031 660.964844 390.839844 659.886719 391.277344 658.828125 C 391.714844 657.773438 392.203125 656.738281 392.742188 655.730469 C 393.277344 654.71875 393.867188 653.738281 394.5 652.785156 C 395.136719 651.835938 395.816406 650.917969 396.539062 650.03125 C 397.265625 649.144531 398.03125 648.300781 398.839844 647.488281 Z M 398.839844 647.488281 " fill-opacity="1" fill-rule="nonzero"/></g><g clip-path="url(#b70538e501)"><path fill="#e2e2e2" d="M 339.777344 688.992188 C 339.777344 691.132812 341.503906 692.859375 343.636719 692.859375 C 345.769531 692.859375 347.496094 691.132812 347.496094 688.992188 C 347.496094 686.855469 345.769531 685.128906 343.636719 685.128906 C 341.503906 685.128906 339.777344 686.855469 339.777344 688.992188 Z M 305 688.992188 C 305 691.132812 306.726562 692.859375 308.859375 692.859375 C 310.992188 692.859375 312.71875 691.132812 312.71875 688.992188 C 312.71875 686.855469 310.992188 685.128906 308.859375 685.128906 C 306.777344 685.128906 305 686.855469 305 688.992188 Z M 322.363281 688.992188 C 322.363281 691.132812 324.089844 692.859375 326.222656 692.859375 C 328.355469 692.859375 330.082031 691.132812 330.082031 688.992188 C 330.082031 686.855469 328.355469 685.128906 326.222656 685.128906 C 324.140625 685.128906 322.363281 686.855469 322.363281 688.992188 Z M 409.238281 672.203125 C 409.238281 674.339844 410.960938 676.070312 413.09375 676.070312 C 415.226562 676.070312 416.953125 674.339844 416.953125 672.203125 C 416.953125 670.066406 415.226562 668.335938 413.09375 668.335938 C 410.960938 668.335938 409.238281 670.015625 409.238281 672.203125 Z M 426.601562 672.203125 C 426.601562 674.339844 428.328125 676.070312 430.460938 676.070312 C 432.59375 676.070312 434.316406 674.339844 434.316406 672.203125 C 434.316406 670.066406 432.59375 668.335938 430.460938 668.335938 C 428.328125 668.285156 426.601562 670.015625 426.601562 672.203125 Z M 374.507812 688.992188 C 374.507812 691.132812 376.234375 692.859375 378.367188 692.859375 C 380.5 692.859375 382.226562 691.132812 382.226562 688.992188 C 382.226562 686.855469 380.5 685.128906 378.367188 685.128906 C 376.234375 685.128906 374.507812 686.855469 374.507812 688.992188 Z M 426.601562 688.992188 C 426.601562 691.132812 428.328125 692.859375 430.460938 692.859375 C 432.59375 692.859375 434.316406 691.132812 434.316406 688.992188 C 434.316406 686.855469 432.59375 685.128906 430.460938 685.128906 C 428.328125 685.128906 426.601562 686.855469 426.601562 688.992188 Z M 312.769531 655.363281 C 312.769531 653.226562 311.042969 651.496094 308.910156 651.496094 C 306.777344 651.496094 305.050781 653.226562 305.050781 655.363281 C 305.050781 657.5 306.777344 659.230469 308.910156 659.230469 C 311.042969 659.230469 312.769531 657.5 312.769531 655.363281 Z M 409.238281 688.992188 C 409.238281 691.132812 410.960938 692.859375 413.09375 692.859375 C 415.226562 692.859375 416.953125 691.132812 416.953125 688.992188 C 416.953125 686.855469 415.226562 685.128906 413.09375 685.128906 C 410.960938 685.128906 409.238281 686.855469 409.238281 688.992188 Z M 391.871094 672.203125 C 391.871094 674.339844 393.597656 676.070312 395.730469 676.070312 C 397.863281 676.070312 399.589844 674.339844 399.589844 672.203125 C 399.589844 670.066406 397.863281 668.335938 395.730469 668.335938 C 393.597656 668.335938 391.871094 670.015625 391.871094 672.203125 Z M 357.144531 688.992188 C 357.144531 691.132812 358.871094 692.859375 361.003906 692.859375 C 363.132812 692.859375 364.859375 691.132812 364.859375 688.992188 C 364.859375 686.855469 363.132812 685.128906 361.003906 685.128906 C 358.871094 685.128906 357.144531 686.855469 357.144531 688.992188 Z M 391.871094 688.992188 C 391.871094 691.132812 393.597656 692.859375 395.730469 692.859375 C 397.863281 692.859375 399.589844 691.132812 399.589844 688.992188 C 399.589844 686.855469 397.863281 685.128906 395.730469 685.128906 C 393.597656 685.128906 391.871094 686.855469 391.871094 688.992188 Z M 357.144531 672.203125 C 357.144531 674.339844 358.871094 676.070312 361.003906 676.070312 C 363.132812 676.070312 364.859375 674.339844 364.859375 672.203125 C 364.859375 670.066406 363.132812 668.335938 361.003906 668.335938 C 358.871094 668.335938 357.144531 670.015625 357.144531 672.203125 Z M 374.507812 655.363281 C 374.507812 657.5 376.234375 659.230469 378.367188 659.230469 C 380.5 659.230469 382.226562 657.5 382.226562 655.363281 C 382.226562 653.226562 380.5 651.496094 378.367188 651.496094 C 376.234375 651.496094 374.507812 653.226562 374.507812 655.363281 Z M 357.144531 655.363281 C 357.144531 657.5 358.871094 659.230469 361.003906 659.230469 C 363.132812 659.230469 364.859375 657.5 364.859375 655.363281 C 364.859375 653.226562 363.132812 651.496094 361.003906 651.496094 C 358.871094 651.496094 357.144531 653.226562 357.144531 655.363281 Z M 391.871094 655.363281 C 391.871094 657.5 393.597656 659.230469 395.730469 659.230469 C 397.863281 659.230469 399.589844 657.5 399.589844 655.363281 C 399.589844 653.226562 397.863281 651.496094 395.730469 651.496094 C 393.597656 651.496094 391.871094 653.226562 391.871094 655.363281 Z M 339.777344 655.363281 C 339.777344 657.5 341.503906 659.230469 343.636719 659.230469 C 345.769531 659.230469 347.496094 657.5 347.496094 655.363281 C 347.496094 653.226562 345.769531 651.496094 343.636719 651.496094 C 341.503906 651.496094 339.777344 653.226562 339.777344 655.363281 Z M 322.363281 655.363281 C 322.363281 657.5 324.089844 659.230469 326.222656 659.230469 C 328.355469 659.230469 330.082031 657.5 330.082031 655.363281 C 330.082031 653.226562 328.355469 651.496094 326.222656 651.496094 C 324.140625 651.496094 322.363281 653.226562 322.363281 655.363281 Z M 374.507812 672.203125 C 374.507812 674.339844 376.234375 676.070312 378.367188 676.070312 C 380.5 676.070312 382.226562 674.339844 382.226562 672.203125 C 382.226562 670.066406 380.5 668.335938 378.367188 668.335938 C 376.234375 668.285156 374.507812 670.015625 374.507812 672.203125 Z M 339.777344 672.203125 C 339.777344 674.339844 341.503906 676.070312 343.636719 676.070312 C 345.769531 676.070312 347.496094 674.339844 347.496094 672.203125 C 347.496094 670.066406 345.769531 668.335938 343.636719 668.335938 C 341.503906 668.335938 339.777344 670.015625 339.777344 672.203125 Z M 322.363281 672.203125 C 322.363281 674.339844 324.089844 676.070312 326.222656 676.070312 C 328.355469 676.070312 330.082031 674.339844 330.082031 672.203125 C 330.082031 670.066406 328.355469 668.335938 326.222656 668.335938 C 324.140625 668.285156 322.363281 670.015625 322.363281 672.203125 Z M 409.238281 655.363281 C 409.238281 657.5 410.960938 659.230469 413.09375 659.230469 C 415.226562 659.230469 416.953125 657.5 416.953125 655.363281 C 416.953125 653.226562 415.226562 651.496094 413.09375 651.496094 C 410.960938 651.496094 409.238281 653.226562 409.238281 655.363281 Z M 305 672.203125 C 305 674.339844 306.726562 676.070312 308.859375 676.070312 C 310.992188 676.070312 312.71875 674.339844 312.71875 672.203125 C 312.71875 670.066406 310.992188 668.335938 308.859375 668.335938 C 306.777344 668.285156 305 670.015625 305 672.203125 Z M 426.601562 655.363281 C 426.601562 657.5 428.328125 659.230469 430.460938 659.230469 C 432.59375 659.230469 434.316406 657.5 434.316406 655.363281 C 434.316406 653.226562 432.59375 651.496094 430.460938 651.496094 C 428.328125 651.496094 426.601562 653.226562 426.601562 655.363281 Z M 426.601562 655.363281 " fill-opacity="1" fill-rule="nonzero"/></g></svg>